<svg xmlns="http://www.w3.org/2000/svg" xmlns:xlink="http://www.w3.org/1999/xlink" width="500" zoomAndPan="magnify" viewBox="0 0 375 374.999991" height="500" preserveAspectRatio="xMidYMid meet" version="1.0"><defs><g/><clipPath id="0c3681af70"><path d="M 10.652344 11 L 364.652344 11 L 364.652344 364.652344 L 10.652344 364.652344 Z M 10.652344 11 " clip-rule="nonzero"/></clipPath></defs><g clip-path="url(#0c3681af70)"><path fill="#ffffff" d="M 179.457031 364.488281 C 178.476562 364.160156 177.492188 363.507812 176.835938 362.851562 C 176.179688 362.195312 175.199219 361.210938 174.542969 360.226562 C 173.230469 358.589844 171.59375 356.949219 170.28125 355.3125 C 168.96875 353.671875 167.660156 351.707031 166.347656 350.066406 L 162.414062 344.824219 C 161.101562 342.855469 160.121094 340.890625 158.808594 338.921875 C 157.496094 336.300781 156.1875 333.351562 154.875 330.726562 C 153.566406 328.105469 152.253906 325.15625 150.941406 322.207031 C 148.976562 318.273438 147.007812 314.667969 144.714844 311.0625 C 142.421875 307.457031 140.125 303.851562 138.160156 299.917969 C 137.503906 298.933594 137.175781 297.621094 136.519531 296.640625 C 136.191406 296.3125 136.191406 295.984375 135.863281 295.65625 L 135.863281 295.328125 C 135.863281 295 135.535156 295 135.207031 294.671875 L 134.226562 294.671875 C 133.898438 294.671875 133.570312 294.671875 133.570312 294.671875 L 131.601562 295.328125 C 128.980469 295.984375 126.6875 296.640625 124.066406 297.621094 C 119.804688 299.261719 115.871094 300.902344 111.609375 302.210938 C 107.347656 303.523438 103.085938 304.832031 98.824219 306.144531 C 94.566406 307.457031 90.304688 308.765625 86.042969 310.078125 L 73.257812 314.011719 C 71.292969 314.667969 69.652344 315.324219 67.6875 315.652344 L 66.703125 315.976562 C 66.046875 316.304688 65.066406 316.304688 64.410156 316.304688 C 63.753906 316.304688 62.769531 315.976562 62.441406 315.324219 C 61.785156 314.667969 61.457031 313.683594 61.457031 312.699219 C 61.457031 311.390625 61.457031 310.40625 61.457031 309.09375 C 61.457031 308.113281 61.785156 307.128906 61.785156 305.816406 C 62.113281 303.851562 62.441406 301.882812 62.769531 299.917969 C 62.769531 299.589844 62.769531 299.589844 62.769531 299.261719 L 62.769531 298.605469 C 63.753906 294.34375 64.410156 290.082031 65.390625 285.496094 C 66.375 280.90625 67.03125 276.644531 68.015625 272.382812 C 68.34375 270.417969 68.996094 268.121094 69.324219 266.15625 C 69.652344 264.191406 70.308594 262.222656 70.636719 260.257812 L 71.621094 255.667969 L 71.949219 253.371094 C 71.949219 252.71875 72.277344 252.0625 72.277344 251.078125 L 72.277344 250.421875 L 71.949219 250.09375 L 71.292969 249.113281 C 70.308594 247.800781 69.324219 246.816406 68.34375 245.507812 C 67.6875 244.851562 67.03125 243.867188 66.046875 243.210938 C 65.066406 242.554688 64.410156 241.574219 63.753906 240.917969 C 60.476562 237.96875 56.871094 235.34375 53.59375 232.722656 C 50.316406 230.101562 46.707031 227.152344 43.101562 224.527344 C 39.496094 221.90625 35.890625 219.285156 32.285156 216.660156 L 27.042969 212.726562 L 21.796875 208.796875 L 16.882812 205.191406 L 14.585938 203.550781 C 13.929688 202.894531 12.949219 202.566406 11.964844 201.910156 C 11.636719 201.582031 11.308594 201.582031 11.308594 201.257812 C 10.980469 200.929688 10.652344 200.601562 10.652344 199.945312 C 10.652344 199.289062 10.652344 198.960938 10.652344 198.304688 C 10.652344 197.652344 10.980469 196.996094 11.308594 196.339844 C 11.964844 195.355469 12.621094 194.371094 13.277344 193.71875 C 14.585938 192.078125 16.226562 190.765625 17.863281 189.457031 C 19.503906 188.144531 21.140625 186.832031 23.109375 185.523438 C 25.074219 184.210938 26.714844 182.902344 28.351562 181.917969 L 33.925781 178.3125 C 35.566406 177 37.53125 175.691406 39.171875 174.378906 C 40.808594 173.066406 42.777344 171.757812 44.742188 170.445312 C 46.707031 169.132812 48.347656 168.152344 50.316406 167.167969 C 52.28125 166.183594 54.246094 164.871094 56.214844 164.21875 C 58.179688 163.234375 60.148438 162.25 61.785156 160.941406 L 65.390625 158.644531 C 66.046875 158.316406 67.03125 158.316406 67.6875 159.300781 C 68.015625 159.628906 68.015625 159.957031 67.6875 160.613281 C 67.6875 160.941406 67.359375 161.265625 67.03125 161.59375 C 65.066406 162.90625 63.097656 164.21875 61.132812 165.199219 C 59.164062 166.183594 57.199219 167.167969 55.558594 168.152344 C 51.625 170.117188 48.019531 172.410156 44.414062 174.707031 L 43.757812 175.035156 C 42.121094 176.34375 40.152344 177.328125 38.515625 178.640625 L 33.269531 182.574219 C 29.664062 185.195312 26.058594 187.488281 22.453125 190.113281 C 20.816406 191.421875 18.847656 192.734375 17.207031 194.371094 C 16.554688 195.027344 15.570312 196.011719 14.914062 196.667969 C 14.585938 196.996094 14.257812 197.324219 13.929688 197.652344 C 13.929688 197.652344 13.601562 197.976562 13.601562 198.304688 C 13.601562 198.304688 13.601562 197.976562 13.601562 197.976562 C 13.601562 197.976562 13.601562 198.304688 13.277344 198.304688 L 13.277344 198.960938 L 13.601562 198.960938 C 14.257812 199.617188 15.242188 200.273438 16.226562 200.601562 C 17.207031 200.929688 17.863281 201.582031 18.519531 202.238281 C 20.160156 203.550781 21.796875 204.863281 23.765625 206.171875 C 25.730469 207.484375 27.042969 208.796875 29.007812 210.105469 L 33.925781 214.367188 C 37.53125 216.988281 41.136719 219.613281 44.742188 222.234375 C 48.347656 224.855469 51.953125 227.476562 55.558594 230.101562 C 59.164062 232.722656 62.769531 235.671875 66.046875 238.621094 C 67.6875 240.261719 69.324219 241.574219 70.964844 243.210938 C 71.621094 243.867188 72.601562 244.851562 73.257812 245.832031 C 73.914062 246.816406 74.570312 247.800781 75.226562 248.785156 C 75.554688 249.765625 75.882812 250.75 75.882812 251.734375 C 75.882812 252.390625 75.882812 253.046875 75.554688 253.371094 C 75.226562 254.355469 75.226562 255.339844 74.898438 256.324219 C 74.570312 258.617188 74.242188 260.582031 73.585938 262.878906 C 73.257812 264.84375 72.601562 267.140625 72.277344 269.105469 L 70.964844 275.660156 C 70.636719 277.628906 69.980469 279.59375 69.652344 281.5625 C 69.652344 281.5625 69.652344 281.5625 69.652344 281.234375 C 68.671875 285.496094 68.015625 290.082031 67.03125 294.34375 L 66.375 297.621094 L 66.046875 299.261719 C 66.046875 299.261719 66.046875 299.261719 66.046875 299.589844 C 66.046875 299.589844 66.046875 299.589844 66.046875 299.917969 C 66.046875 300.246094 66.046875 300.246094 66.046875 300.574219 C 66.046875 300.574219 66.046875 300.574219 66.046875 300.902344 C 65.390625 304.179688 64.738281 307.457031 64.410156 310.734375 L 64.410156 313.027344 L 64.738281 313.027344 C 65.71875 312.699219 67.03125 312.371094 68.015625 312.046875 L 70.964844 311.0625 L 77.519531 308.765625 C 81.78125 307.457031 86.042969 306.144531 89.976562 304.832031 C 96.203125 303.195312 102.429688 301.554688 108.660156 299.589844 C 110.625 298.933594 112.59375 298.277344 114.558594 297.296875 L 120.785156 295 C 122.753906 294.34375 125.046875 293.363281 127.015625 292.707031 C 128.980469 292.050781 131.277344 291.722656 133.570312 291.394531 C 134.554688 291.394531 135.535156 291.722656 136.519531 292.050781 C 137.175781 292.378906 137.832031 292.707031 138.160156 293.363281 C 138.488281 293.691406 138.816406 294.015625 138.816406 294.671875 C 139.46875 295.65625 139.796875 296.640625 140.453125 297.621094 C 142.421875 301.554688 144.714844 304.832031 146.679688 308.765625 C 147.664062 310.734375 148.976562 312.699219 149.957031 314.339844 C 150.941406 315.976562 152.253906 317.945312 152.910156 319.910156 C 155.53125 325.484375 157.824219 331.054688 160.777344 336.300781 C 161.429688 337.285156 162.085938 338.59375 162.414062 339.578125 C 162.742188 340.5625 163.726562 341.871094 164.382812 342.855469 C 166.019531 345.152344 167.988281 347.773438 169.625 350.066406 C 170.609375 351.378906 171.59375 352.691406 172.574219 353.671875 C 173.558594 354.65625 174.542969 355.96875 175.527344 356.949219 C 176.507812 358.261719 177.492188 359.246094 178.804688 360.554688 L 179.457031 360.882812 C 180.441406 359.246094 181.753906 357.277344 182.738281 355.640625 C 183.71875 354 185.03125 352.035156 186.015625 350.066406 C 188.308594 346.132812 190.277344 342.527344 192.898438 338.59375 C 193.882812 336.628906 195.191406 334.988281 196.175781 333.023438 L 199.453125 327.449219 C 200.4375 325.484375 201.746094 323.84375 203.058594 321.878906 C 204.371094 319.910156 205.679688 317.945312 206.992188 316.304688 C 209.613281 312.699219 212.238281 308.765625 214.859375 305.160156 C 216.171875 303.195312 217.480469 301.226562 218.464844 299.261719 L 218.464844 299.589844 C 218.464844 299.261719 218.792969 298.933594 219.121094 298.605469 C 219.121094 297.621094 220.101562 297.296875 220.757812 297.296875 C 221.414062 297.296875 222.070312 297.949219 222.070312 298.605469 C 222.070312 299.261719 222.070312 299.589844 221.742188 300.246094 C 221.414062 301.226562 220.757812 302.210938 220.101562 303.195312 C 219.121094 305.160156 217.808594 307.128906 216.496094 308.765625 L 208.960938 319.582031 L 205.679688 324.171875 C 203.058594 327.777344 201.09375 331.710938 198.796875 335.316406 C 197.816406 337.285156 196.503906 338.921875 195.191406 340.890625 C 193.882812 342.855469 192.898438 344.824219 191.914062 346.460938 C 190.929688 348.101562 189.621094 350.066406 188.636719 352.035156 C 187.652344 354 186.34375 355.640625 185.359375 357.605469 C 184.703125 358.589844 184.375 359.574219 183.71875 360.226562 L 183.066406 361.539062 C 182.738281 362.195312 182.410156 362.523438 182.082031 363.179688 C 181.753906 363.507812 181.425781 363.832031 181.097656 363.832031 C 180.769531 363.832031 180.441406 363.832031 180.113281 363.832031 Z M 66.703125 159.300781 L 67.03125 159.300781 C 67.6875 158.972656 68.34375 158.316406 68.34375 157.660156 C 68.34375 157.332031 68.34375 157.332031 68.34375 157.007812 C 68.34375 156.679688 68.34375 156.351562 68.015625 156.023438 C 67.359375 153.074219 66.703125 149.796875 66.375 146.84375 C 65.066406 139.960938 64.082031 133.078125 62.769531 126.523438 L 62.769531 126.851562 C 62.769531 126.195312 62.441406 125.539062 62.441406 124.554688 C 61.785156 120.621094 60.804688 117.015625 60.148438 113.082031 C 59.820312 111.445312 59.492188 110.132812 59.164062 108.496094 C 57.851562 101.941406 56.542969 95.054688 55.558594 88.5 C 54.902344 85.222656 54.574219 81.945312 53.921875 78.667969 L 52.9375 73.75 C 52.9375 73.09375 52.609375 72.113281 52.609375 71.457031 C 52.609375 70.800781 52.28125 69.816406 52.28125 69.160156 L 52.9375 69.160156 C 53.59375 69.160156 54.574219 68.832031 55.558594 68.832031 L 64.410156 68.832031 L 74.898438 69.816406 C 78.175781 70.144531 81.453125 70.472656 85.058594 70.800781 C 88.664062 71.128906 91.613281 71.128906 95.21875 71.457031 C 98.824219 71.785156 101.777344 72.113281 105.054688 73.09375 C 106.035156 73.421875 107.347656 73.421875 108.332031 73.75 L 111.609375 74.734375 C 112.921875 75.0625 113.902344 75.390625 115.214844 75.71875 L 118.820312 76.371094 L 119.148438 76.371094 C 119.476562 76.371094 120.132812 76.371094 120.457031 76.371094 C 120.785156 76.046875 121.113281 75.71875 121.113281 75.390625 C 121.441406 74.734375 120.785156 73.75 120.132812 73.421875 L 117.507812 72.765625 C 115.871094 72.441406 114.230469 72.113281 112.921875 71.457031 C 111.609375 70.800781 109.640625 70.472656 108.003906 70.144531 C 106.363281 69.816406 104.726562 69.488281 103.085938 69.160156 C 99.808594 68.507812 96.203125 68.179688 92.925781 67.851562 C 89.648438 67.523438 86.371094 67.523438 83.09375 67.195312 C 79.816406 66.867188 76.207031 66.539062 72.929688 66.210938 C 69.652344 65.882812 66.046875 65.554688 62.441406 65.226562 C 60.804688 65.226562 59.164062 65.226562 57.851562 65.226562 C 56.214844 65.226562 54.574219 65.554688 52.9375 65.554688 L 53.265625 65.554688 L 52.609375 65.554688 L 52.9375 65.554688 C 52.28125 65.554688 51.625 65.882812 50.96875 66.539062 C 50.316406 67.195312 49.988281 67.851562 49.988281 68.832031 C 49.988281 69.816406 50.316406 70.472656 50.316406 71.457031 C 50.640625 72.765625 50.96875 74.40625 50.96875 75.71875 C 51.625 78.667969 51.953125 81.617188 52.609375 84.566406 C 53.265625 87.515625 53.59375 91.449219 54.246094 94.726562 C 54.902344 98.007812 55.558594 101.285156 56.214844 104.5625 C 56.871094 107.839844 57.527344 111.445312 58.179688 114.722656 L 60.148438 124.554688 C 60.148438 124.554688 60.148438 124.554688 60.148438 124.882812 L 60.148438 124.554688 C 60.148438 125.210938 60.476562 125.867188 60.476562 126.523438 C 60.476562 126.523438 60.476562 126.523438 60.476562 126.195312 C 61.132812 129.800781 61.785156 133.734375 62.441406 137.339844 C 63.097656 140.617188 63.425781 143.894531 64.082031 147.171875 C 64.410156 148.8125 64.738281 150.777344 65.066406 152.417969 C 65.066406 153.074219 65.390625 154.054688 65.390625 154.710938 L 65.71875 156.351562 C 65.71875 156.679688 66.046875 157.332031 66.046875 157.660156 C 65.71875 158.972656 66.046875 159.300781 66.703125 159.300781 Z M 224.691406 300.574219 C 226.003906 300.574219 227.316406 300.574219 228.296875 300.574219 L 227.96875 300.574219 C 232.558594 300.246094 237.476562 299.589844 242.066406 299.261719 C 245.671875 298.933594 249.601562 298.605469 253.207031 298.277344 L 264.027344 297.296875 C 271.238281 296.640625 278.449219 295.984375 285.660156 295.328125 L 296.476562 294.015625 L 302.046875 293.035156 L 303.03125 293.035156 C 303.359375 293.035156 304.015625 293.035156 304.34375 293.035156 C 306.308594 292.707031 306.636719 290.410156 306.308594 288.773438 C 306.308594 286.804688 305.980469 284.839844 305.324219 283.199219 C 304.996094 281.5625 304.34375 279.59375 304.015625 277.957031 C 303.03125 274.351562 301.71875 271.074219 300.410156 267.796875 C 299.753906 265.828125 299.097656 263.863281 298.441406 262.222656 L 296.804688 256.652344 L 295.492188 251.078125 C 294.835938 249.441406 294.507812 247.800781 293.851562 245.832031 C 292.871094 242.554688 291.886719 238.949219 290.902344 235.671875 C 289.921875 232.394531 288.9375 228.789062 287.953125 225.511719 L 286.640625 220.921875 C 286.316406 219.941406 285.988281 219.285156 285.988281 218.300781 C 285.988281 217.316406 285.660156 216.660156 285.332031 216.007812 L 285.332031 215.679688 C 285.332031 215.679688 285.332031 215.679688 285.332031 216.007812 L 285.332031 215.679688 L 285.660156 215.351562 C 285.988281 215.023438 285.988281 215.023438 286.316406 214.695312 C 288.9375 212.402344 291.558594 210.433594 294.507812 208.46875 C 297.785156 206.171875 301.390625 204.207031 304.671875 201.910156 C 307.949219 199.617188 310.570312 197.976562 313.847656 196.339844 C 317.125 194.699219 320.074219 192.734375 323.351562 191.09375 C 326.632812 189.457031 329.582031 187.816406 332.859375 186.179688 C 334.496094 185.195312 336.136719 184.539062 337.449219 183.554688 C 338.757812 182.574219 340.398438 181.917969 342.035156 180.933594 L 343.347656 180.277344 C 346.625 178.640625 349.902344 177 353.507812 175.363281 L 358.097656 172.738281 L 360.390625 171.429688 C 361.046875 171.101562 361.703125 170.773438 362.359375 170.117188 L 363.34375 169.460938 C 363.671875 169.132812 364.324219 168.804688 364.324219 168.152344 C 364.652344 167.496094 364.652344 166.511719 363.996094 165.855469 C 363.671875 165.199219 363.015625 164.871094 362.6875 164.546875 C 361.375 163.5625 359.738281 162.578125 358.097656 161.921875 C 351.871094 158.644531 344.988281 156.023438 338.757812 152.746094 L 337.777344 152.417969 C 335.480469 151.433594 333.515625 150.121094 331.21875 148.8125 L 326.632812 146.191406 L 322.042969 143.566406 C 318.765625 141.929688 315.488281 140.289062 312.207031 138.652344 C 308.929688 137.011719 305.980469 135.699219 302.703125 134.390625 C 299.425781 133.078125 296.476562 131.765625 293.527344 130.128906 C 292.214844 129.472656 290.902344 128.816406 289.59375 128.160156 C 288.9375 127.832031 287.953125 128.160156 287.296875 128.816406 C 286.96875 129.472656 287.296875 130.457031 287.953125 131.113281 C 287.953125 131.113281 288.28125 131.113281 288.28125 131.113281 L 291.230469 132.75 C 293.527344 133.734375 295.820312 135.046875 298.113281 136.027344 L 307.621094 140.289062 C 310.898438 141.601562 314.175781 143.238281 317.453125 144.878906 L 318.109375 145.207031 C 321.386719 146.84375 324.335938 148.484375 327.613281 150.121094 C 330.890625 151.761719 333.84375 153.402344 337.121094 155.039062 L 336.792969 155.039062 L 337.449219 155.367188 C 340.398438 157.007812 343.347656 157.988281 346.625 159.628906 C 349.902344 161.265625 352.527344 162.25 355.476562 163.890625 C 357.113281 164.546875 358.753906 165.527344 360.066406 166.511719 L 361.046875 167.167969 L 360.71875 167.496094 C 360.066406 167.824219 359.410156 168.152344 358.753906 168.476562 L 356.457031 169.460938 L 352.199219 171.757812 C 349.246094 173.394531 345.96875 175.035156 343.019531 176.34375 L 341.382812 178.3125 C 339.742188 178.96875 338.101562 179.949219 336.464844 180.933594 C 334.824219 181.917969 333.1875 182.574219 331.546875 183.554688 C 328.597656 185.195312 325.320312 186.832031 322.042969 188.472656 C 318.765625 190.113281 315.488281 191.75 312.535156 193.71875 C 309.585938 195.683594 306.308594 197.324219 303.359375 199.289062 C 300.410156 201.257812 297.132812 203.222656 294.179688 205.191406 C 291.230469 207.15625 288.28125 209.121094 285.660156 211.089844 C 284.019531 212.402344 281.726562 214.039062 282.054688 216.332031 C 282.382812 217.316406 282.382812 217.972656 282.707031 218.957031 C 283.035156 219.613281 283.035156 220.59375 283.363281 221.578125 C 284.347656 224.855469 285.332031 228.132812 286.3125 231.410156 C 288.28125 238.296875 290.246094 245.179688 292.214844 252.0625 L 293.851562 257.304688 C 294.507812 258.945312 294.835938 260.582031 295.492188 262.222656 C 296.476562 265.828125 297.785156 269.433594 299.097656 272.710938 C 299.753906 275.007812 300.738281 276.972656 301.390625 279.265625 C 302.046875 281.5625 302.375 283.527344 303.03125 285.824219 C 303.359375 286.804688 303.359375 287.789062 303.6875 289.101562 C 303.6875 289.429688 303.6875 290.082031 303.6875 290.410156 C 303.6875 290.738281 303.6875 290.410156 303.6875 290.738281 L 302.046875 291.066406 L 299.753906 291.394531 L 295.164062 292.050781 C 291.558594 292.378906 287.953125 293.035156 284.347656 293.363281 C 280.742188 293.6875 277.136719 294.015625 273.859375 294.34375 L 262.714844 295.328125 L 252.226562 296.3125 L 241.082031 297.296875 L 235.835938 297.949219 C 234.199219 298.277344 232.230469 298.277344 230.59375 298.605469 L 228.953125 298.605469 C 226.003906 298.605469 222.726562 298.605469 219.449219 298.605469 C 218.464844 298.605469 217.808594 299.261719 217.808594 300.246094 C 217.808594 301.226562 218.464844 301.882812 219.449219 301.882812 L 225.347656 301.882812 Z M 290.246094 133.40625 C 291.230469 133.40625 291.886719 132.75 291.886719 131.765625 C 291.886719 130.785156 291.230469 130.128906 290.246094 130.128906 C 289.265625 130.128906 288.609375 130.785156 288.609375 131.765625 C 288.9375 132.75 289.59375 133.40625 290.246094 133.40625 C 290.574219 133.40625 290.574219 133.40625 290.246094 133.40625 Z M 286.96875 132.421875 C 287.625 132.421875 287.953125 132.09375 288.28125 131.765625 C 288.609375 131.113281 288.9375 130.785156 288.9375 130.128906 C 288.9375 130.128906 288.9375 130.128906 288.9375 129.800781 C 288.9375 129.472656 288.9375 129.800781 288.9375 129.472656 C 288.9375 129.144531 288.9375 129.472656 288.9375 129.472656 C 289.265625 128.816406 289.265625 127.832031 289.59375 127.179688 C 289.921875 125.539062 290.246094 123.902344 290.574219 122.261719 C 290.902344 120.621094 291.230469 118.984375 291.558594 117.34375 C 291.886719 116.691406 291.886719 115.707031 292.214844 115.050781 C 292.542969 114.394531 292.542969 113.410156 292.871094 112.757812 C 293.527344 110.789062 294.179688 109.152344 294.835938 107.183594 C 295.492188 105.21875 296.148438 103.578125 296.476562 101.941406 C 297.457031 98.660156 298.441406 95.382812 299.425781 92.105469 C 299.753906 90.46875 300.410156 88.828125 300.738281 87.515625 C 301.066406 86.207031 301.71875 84.238281 302.375 82.601562 L 302.375 82.929688 L 302.703125 81.617188 L 302.703125 81.945312 C 303.359375 79.976562 304.015625 77.683594 304.671875 75.71875 C 305.324219 73.75 305.652344 71.785156 306.308594 69.488281 C 306.636719 68.179688 306.964844 67.195312 307.292969 66.210938 C 307.621094 65.226562 307.949219 63.917969 308.277344 62.933594 C 308.929688 60.640625 309.257812 58.34375 309.914062 56.378906 C 310.242188 55.066406 310.570312 54.082031 310.898438 52.773438 C 311.226562 51.460938 311.554688 50.804688 311.554688 49.824219 C 311.554688 48.839844 311.226562 48.183594 310.242188 47.855469 C 309.257812 47.527344 308.601562 48.183594 308.277344 49.167969 C 308.277344 49.824219 307.949219 50.476562 307.621094 51.132812 C 307.292969 51.789062 307.292969 52.445312 306.964844 53.429688 C 306.636719 54.738281 306.308594 56.050781 305.980469 57.363281 L 304.996094 61.296875 C 304.34375 63.261719 303.6875 65.226562 303.03125 67.195312 C 302.375 69.160156 302.046875 71.128906 301.390625 73.421875 C 300.738281 76.046875 299.753906 78.667969 299.097656 81.289062 L 299.097656 80.960938 C 299.097656 81.289062 298.769531 81.617188 298.769531 82.273438 C 298.441406 83.582031 297.785156 85.222656 297.457031 86.535156 C 297.132812 87.84375 296.476562 89.15625 296.148438 90.46875 C 295.164062 93.746094 294.179688 97.023438 293.199219 100.300781 C 292.542969 101.941406 292.214844 103.578125 291.558594 104.890625 C 290.902344 106.199219 290.574219 107.839844 289.921875 109.476562 C 289.265625 111.117188 288.9375 112.757812 288.28125 114.394531 C 288.9375 116.363281 288.9375 117.671875 288.609375 119.3125 C 288.28125 120.949219 287.953125 122.589844 287.625 124.226562 C 287.296875 125.867188 286.96875 127.179688 286.316406 128.816406 L 286.316406 129.144531 C 286.316406 129.472656 286.316406 129.800781 285.988281 129.800781 C 285.988281 129.800781 285.660156 130.128906 285.660156 130.457031 C 285.332031 131.113281 285.660156 131.765625 285.988281 132.09375 C 286.316406 132.421875 286.640625 132.421875 286.96875 132.421875 Z M 229.609375 77.683594 C 230.59375 77.683594 231.246094 77.355469 231.902344 77.027344 L 233.871094 76.371094 C 235.179688 76.046875 236.164062 75.71875 237.476562 75.390625 C 238.785156 75.0625 239.769531 75.0625 240.753906 74.734375 L 244.359375 73.75 C 247.636719 72.765625 250.585938 71.785156 253.863281 70.472656 L 258.453125 68.832031 C 260.09375 68.179688 261.730469 67.851562 263.042969 67.195312 L 263.371094 67.195312 L 269.269531 64.902344 L 268.941406 64.902344 L 271.890625 63.917969 C 275.171875 62.933594 278.121094 61.621094 281.398438 60.640625 L 290.902344 57.363281 C 296.476562 55.394531 302.046875 53.757812 307.292969 51.789062 C 307.949219 52.117188 308.277344 51.789062 308.929688 51.460938 L 309.585938 50.804688 C 309.585938 50.804688 309.914062 50.804688 309.914062 50.804688 C 310.570312 50.476562 310.898438 49.496094 310.570312 48.839844 C 310.242188 48.183594 309.585938 47.855469 308.601562 47.855469 L 306.964844 48.511719 C 304.671875 49.496094 302.375 50.152344 300.082031 50.804688 C 296.804688 51.789062 293.851562 52.773438 290.574219 53.757812 L 281.070312 57.035156 C 277.792969 58.015625 274.84375 59.328125 271.566406 60.3125 C 269.925781 60.96875 268.285156 61.296875 266.648438 61.949219 L 262.386719 63.589844 L 262.058594 63.589844 L 261.402344 63.917969 L 261.730469 63.917969 C 260.09375 64.574219 258.78125 64.902344 257.140625 65.554688 L 252.554688 67.195312 C 250.914062 67.851562 249.277344 68.179688 247.964844 68.832031 C 244.6875 69.816406 241.738281 70.800781 238.457031 71.457031 C 236.820312 71.785156 235.507812 72.113281 234.199219 72.765625 C 233.214844 73.421875 232.558594 73.421875 231.574219 73.75 C 230.59375 74.078125 230.265625 74.40625 229.28125 74.40625 L 228.953125 74.40625 C 227.96875 74.734375 227.640625 75.390625 227.640625 76.371094 C 228.296875 77.355469 228.953125 77.683594 229.609375 77.683594 Z M 226.660156 78.996094 C 227.316406 78.996094 227.96875 78.667969 228.625 78.667969 C 229.28125 78.339844 229.9375 78.339844 230.265625 78.011719 L 230.921875 77.683594 L 231.574219 77.355469 C 232.230469 77.027344 232.558594 76.046875 232.230469 75.390625 C 231.902344 74.734375 230.921875 74.078125 230.265625 74.734375 L 229.9375 74.734375 L 228.625 75.390625 L 228.953125 75.390625 L 228.625 75.390625 C 227.96875 75.71875 227.640625 75.71875 226.988281 76.046875 L 226.660156 76.046875 C 226.003906 75.71875 225.019531 75.0625 224.363281 74.734375 L 221.414062 73.09375 C 219.449219 71.785156 217.480469 70.800781 215.515625 69.488281 C 214.203125 68.507812 212.890625 67.851562 211.582031 66.867188 C 210.269531 65.882812 208.957031 64.902344 207.648438 63.917969 C 205.027344 61.949219 202.402344 59.984375 199.78125 58.015625 C 197.160156 56.050781 193.882812 53.757812 191.257812 51.789062 C 188.636719 49.824219 186.015625 47.855469 183.390625 45.890625 C 180.769531 43.921875 178.148438 41.957031 175.527344 39.660156 C 172.902344 37.367188 170.28125 35.402344 167.332031 33.105469 C 164.382812 30.8125 162.085938 28.84375 159.464844 26.878906 L 151.597656 20.324219 C 149.957031 19.011719 148.648438 17.699219 147.007812 16.390625 L 145.042969 14.421875 C 144.386719 14.09375 144.058594 13.441406 143.402344 12.785156 C 143.402344 12.128906 143.074219 11.472656 142.746094 11.144531 C 142.09375 10.816406 141.109375 11.144531 140.453125 11.800781 C 140.125 12.128906 140.125 12.457031 140.125 13.113281 C 140.125 13.765625 140.453125 14.09375 140.78125 14.421875 C 141.4375 15.078125 141.765625 15.734375 142.421875 16.0625 L 144.386719 17.699219 C 145.699219 18.683594 146.679688 19.996094 147.992188 20.976562 C 150.613281 23.273438 153.238281 25.238281 155.859375 27.535156 C 158.480469 29.828125 161.101562 31.796875 163.726562 34.089844 L 171.59375 40.644531 C 174.214844 42.613281 176.835938 44.578125 179.457031 46.871094 C 182.082031 49.167969 184.703125 50.804688 187.324219 52.773438 C 189.949219 54.738281 192.898438 56.707031 195.519531 58.671875 C 198.140625 60.640625 200.765625 62.605469 203.386719 64.574219 C 206.007812 66.539062 208.632812 68.507812 211.253906 70.472656 C 213.875 72.441406 216.496094 73.75 219.449219 75.390625 L 223.382812 77.355469 C 224.035156 77.683594 224.363281 78.011719 225.019531 78.339844 C 225.675781 78.996094 226.003906 78.996094 226.660156 78.996094 Z M 120.457031 77.027344 C 120.785156 77.027344 121.441406 77.027344 121.769531 76.699219 C 122.097656 76.371094 122.425781 76.046875 122.425781 75.390625 C 122.753906 75.0625 122.753906 74.40625 122.425781 74.078125 L 122.425781 73.75 C 122.753906 72.113281 123.410156 70.800781 124.066406 69.488281 C 124.71875 68.179688 125.046875 66.539062 125.703125 64.902344 C 126.6875 61.949219 127.671875 59 128.652344 56.378906 C 129.636719 53.757812 130.949219 50.152344 131.929688 47.199219 C 132.585938 45.5625 132.914062 44.25 133.570312 42.613281 C 134.226562 40.972656 134.554688 39.332031 135.207031 37.695312 C 135.863281 36.054688 136.191406 34.417969 136.847656 32.777344 C 137.503906 31.140625 137.832031 29.828125 138.488281 28.191406 C 139.140625 26.550781 139.46875 24.910156 140.125 23.601562 C 140.78125 22.289062 141.109375 20.976562 141.4375 19.667969 L 142.421875 17.046875 C 142.746094 16.390625 142.746094 15.734375 143.074219 15.078125 C 143.402344 14.09375 142.746094 13.441406 141.765625 13.113281 C 140.78125 12.785156 140.125 13.765625 139.796875 14.421875 C 139.796875 14.75 139.796875 15.078125 139.46875 15.40625 C 139.46875 16.0625 139.140625 16.390625 138.816406 17.046875 C 138.488281 17.699219 138.488281 18.683594 138.160156 19.339844 C 137.832031 20.652344 137.175781 21.960938 136.847656 23.601562 C 136.519531 25.238281 135.863281 26.550781 135.207031 28.191406 C 134.554688 29.828125 134.226562 31.140625 133.570312 32.777344 C 132.914062 34.417969 132.585938 36.054688 131.929688 37.695312 C 131.277344 39.332031 130.949219 40.972656 130.292969 42.285156 L 128.652344 47.199219 C 127.671875 50.152344 126.359375 53.429688 125.375 56.378906 C 124.390625 59.328125 123.082031 62.933594 122.097656 65.882812 C 121.441406 67.523438 121.113281 68.832031 120.457031 70.472656 C 120.132812 71.457031 119.804688 72.113281 119.476562 73.09375 C 119.476562 73.421875 119.148438 73.75 119.148438 74.40625 C 119.148438 74.734375 118.820312 75.390625 118.820312 75.71875 C 119.148438 76.371094 119.804688 76.699219 120.457031 77.027344 Z M 120.457031 77.027344 " fill-opacity="1" fill-rule="nonzero"/></g><g fill="#ffffff" fill-opacity="1"><g transform="translate(162.00129, 228.903392)"><g><path d="M 42.75 -99.75 C 40.800781 -104.398438 36.898438 -105.300781 32.25 -105.148438 C 18.601562 -98.699219 12.449219 -95.398438 6.601562 -91.050781 C 6.449219 -90.148438 6 -89.101562 6.300781 -88.351562 C 7.050781 -86.550781 7.949219 -84.898438 9 -83.398438 C 10.050781 -81.898438 11.398438 -80.699219 13.351562 -80.398438 C 17.851562 -81.898438 22.199219 -83.398438 26.398438 -84.75 C 28.050781 -84 28.5 -82.800781 28.5 -81.300781 C 28.648438 -57.300781 28.800781 -33.148438 28.949219 -9.148438 C 28.949219 -6.898438 29.25 -4.5 29.550781 -2.101562 C 29.550781 -1.800781 30 -1.351562 30.300781 -1.050781 C 33.449219 0.449219 36.601562 0.601562 39.601562 -1.5 C 40.648438 -3.601562 41.699219 -5.699219 42.75 -7.800781 C 42.898438 -11.699219 43.199219 -15.449219 43.199219 -19.199219 C 43.050781 -46.050781 42.898438 -72.898438 42.75 -99.75 Z M 42.75 -99.75 "/></g></g></g></svg>