<svg xmlns="http://www.w3.org/2000/svg" xmlns:xlink="http://www.w3.org/1999/xlink" width="500" zoomAndPan="magnify" viewBox="0 0 375 374.999991" height="500" preserveAspectRatio="xMidYMid meet" version="1.0"><defs><clipPath id="d0319d89b7"><path d="M 0 2.046875 L 374 2.046875 L 374 373.296875 L 0 373.296875 Z M 0 2.046875 " clip-rule="nonzero"/></clipPath></defs><g clip-path="url(#d0319d89b7)"><path fill="#e680e8" d="M 183.730469 372.265625 C 183.042969 371.578125 182.359375 370.894531 181.671875 369.863281 C 179.957031 367.804688 178.585938 365.402344 177.214844 363.34375 L 171.730469 354.765625 C 167.960938 348.933594 164.53125 343.445312 160.761719 337.613281 C 158.019531 333.496094 155.277344 329.71875 152.535156 325.601562 L 152.878906 325.945312 C 149.449219 321.140625 146.367188 316.339844 143.28125 311.535156 C 141.566406 309.132812 140.195312 306.730469 138.824219 304.328125 L 136.765625 300.898438 L 136.082031 300.898438 L 129.910156 302.269531 C 125.796875 303.300781 121.339844 304.328125 117.226562 305.703125 C 113.800781 306.730469 110.371094 308.105469 106.945312 309.476562 C 103.515625 310.847656 100.089844 311.878906 96.660156 312.90625 C 93.234375 313.9375 89.121094 315.652344 85.347656 317.367188 C 81.578125 319.082031 77.464844 320.457031 73.695312 321.484375 C 71.636719 322.171875 69.238281 322.515625 66.839844 322.859375 L 65.46875 322.859375 C 63.410156 322.859375 61.351562 321.828125 60.324219 320.113281 C 59.640625 318.738281 59.296875 317.367188 59.296875 315.996094 C 59.296875 313.9375 59.640625 312.222656 59.640625 310.164062 C 59.640625 308.105469 60.324219 306.046875 60.667969 303.644531 C 61.011719 301.242188 61.351562 300.210938 61.695312 298.496094 C 63.066406 293.007812 63.753906 287.171875 64.78125 281.339844 C 65.808594 275.507812 67.523438 269.675781 68.894531 263.5 C 69.582031 260.066406 70.265625 256.636719 70.609375 252.863281 C 70.609375 251.832031 70.609375 251.148438 70.609375 250.117188 C 67.523438 248.058594 64.78125 246.34375 62.039062 244.285156 L 56.554688 240.511719 C 54.839844 239.480469 53.46875 238.109375 51.753906 236.734375 C 48.328125 234.335938 45.242188 231.933594 41.8125 229.1875 C 38.386719 226.441406 35.300781 224.382812 32.214844 221.980469 C 29.132812 219.582031 26.046875 217.523438 22.960938 215.121094 C 18.160156 211.34375 13.363281 207.570312 8.90625 203.796875 L 5.480469 201.050781 C 4.109375 200.023438 2.738281 198.308594 1.707031 196.933594 C 1.023438 195.5625 0.679688 193.847656 1.363281 192.472656 C 1.707031 191.101562 2.738281 190.074219 3.765625 189.386719 L 7.191406 186.640625 C 8.90625 185.613281 10.277344 184.238281 11.648438 182.867188 L 13.363281 180.808594 C 14.046875 180.121094 14.734375 179.4375 15.417969 179.09375 C 17.132812 178.40625 18.503906 177.378906 19.875 176.691406 C 21.246094 176.003906 23.304688 174.632812 25.019531 173.601562 C 28.789062 171.199219 32.214844 169.140625 35.988281 166.742188 L 41.472656 163.652344 C 43.183594 162.625 44.898438 161.25 46.957031 160.222656 L 52.441406 156.789062 L 51.414062 156.789062 L 51.753906 156.445312 C 53.8125 155.074219 55.527344 153.703125 57.582031 152.328125 C 58.269531 151.644531 59.296875 150.613281 59.980469 149.929688 L 60.667969 148.898438 C 60.324219 147.871094 59.980469 146.839844 59.640625 145.808594 C 58.953125 144.09375 58.609375 142.035156 58.269531 140.320312 C 57.582031 136.203125 56.898438 132.085938 56.554688 128.3125 C 56.210938 124.539062 55.183594 120.078125 54.496094 115.960938 C 53.8125 111.84375 53.46875 108.066406 52.785156 103.949219 C 52.785156 103.265625 52.441406 102.234375 52.441406 101.546875 C 50.726562 93.3125 48.671875 84.734375 46.613281 76.5 C 45.929688 74.441406 45.585938 72.726562 44.898438 70.667969 C 44.558594 69.640625 44.558594 68.953125 44.214844 67.921875 C 43.871094 66.207031 43.527344 64.492188 43.871094 62.433594 C 44.214844 60.375 45.929688 59.003906 47.640625 58.316406 C 48.671875 57.972656 50.042969 57.972656 51.070312 57.972656 C 53.125 57.972656 55.183594 57.972656 57.238281 58.316406 C 61.011719 58.660156 64.4375 59.6875 68.210938 60.03125 C 71.980469 60.375 75.75 61.0625 79.863281 61.746094 C 83.976562 62.433594 87.75 62.777344 91.863281 63.464844 C 95.976562 64.148438 100.429688 65.179688 104.542969 66.207031 C 106.257812 66.550781 107.628906 66.894531 109.34375 67.582031 C 110.371094 67.921875 111.402344 68.265625 112.429688 68.609375 C 113.800781 64.148438 115.171875 59.6875 117.226562 55.226562 C 118.257812 52.484375 119.285156 50.082031 120.65625 47.335938 C 122.027344 44.589844 122.710938 42.191406 123.742188 39.445312 C 124.769531 36.699219 125.796875 33.613281 126.484375 30.867188 C 127.167969 28.121094 128.539062 25.035156 129.570312 22.289062 C 130.597656 19.542969 131.28125 16.457031 132.3125 13.710938 C 133.339844 10.964844 134.023438 8.90625 134.710938 6.507812 C 134.710938 5.476562 135.394531 4.445312 136.082031 3.761719 C 137.453125 2.386719 139.507812 2.046875 141.222656 2.730469 C 142.25 3.074219 142.9375 4.105469 143.621094 5.132812 C 147.738281 7.878906 151.507812 10.964844 155.277344 13.710938 C 162.132812 18.515625 168.648438 22.976562 175.160156 28.121094 C 188.527344 38.414062 201.554688 49.050781 215.609375 58.660156 C 217.664062 60.03125 219.722656 61.746094 222.121094 63.121094 C 222.464844 63.121094 222.808594 63.464844 223.148438 63.464844 L 223.835938 64.148438 L 224.863281 63.804688 C 226.921875 63.121094 228.636719 62.433594 230.347656 62.089844 C 234.460938 60.71875 238.234375 59.6875 242.347656 58.660156 C 246.460938 57.628906 250.574219 56.601562 254.6875 55.226562 C 258.800781 53.855469 262.570312 52.828125 266.683594 51.453125 C 271.140625 50.082031 275.941406 48.710938 280.394531 47.335938 C 284.851562 45.964844 289.652344 44.933594 294.109375 43.5625 C 298.5625 42.191406 301.992188 40.472656 306.105469 39.101562 C 308.160156 38.414062 310.21875 37.730469 312.277344 37.730469 C 314.332031 37.386719 316.390625 37.730469 318.101562 39.101562 C 319.132812 40.132812 319.816406 41.503906 319.472656 42.875 C 319.472656 43.90625 319.132812 44.933594 319.132812 45.964844 L 318.101562 51.453125 C 317.417969 55.570312 316.730469 59.34375 315.703125 63.464844 C 314.675781 67.582031 313.648438 71.355469 312.960938 75.128906 C 312.617188 77.1875 311.933594 79.246094 311.589844 81.304688 C 311.246094 83.363281 310.5625 85.421875 309.875 87.480469 C 308.847656 91.597656 307.820312 95.714844 307.132812 99.488281 C 306.449219 103.265625 305.078125 107.726562 304.046875 111.84375 C 303.363281 115.273438 302.335938 118.359375 301.648438 121.792969 C 301.304688 123.164062 300.964844 124.539062 300.621094 125.910156 C 307.476562 129.683594 314.332031 133.457031 320.84375 137.234375 C 324.273438 139.292969 327.699219 141.351562 331.472656 143.75 C 335.242188 146.152344 338.671875 148.210938 342.441406 150.269531 L 346.554688 152.671875 L 347.238281 153.015625 L 347.925781 153.359375 C 351.351562 155.074219 354.78125 156.789062 358.210938 158.847656 L 359.238281 159.535156 L 358.550781 159.191406 C 362.324219 160.90625 366.09375 163.308594 369.519531 166.054688 C 370.207031 166.742188 370.890625 167.425781 371.578125 168.457031 C 372.261719 169.484375 372.949219 170.515625 373.636719 171.542969 C 374.320312 173.257812 373.976562 174.976562 372.949219 176.347656 C 372.261719 177.035156 371.921875 177.378906 371.234375 178.0625 C 370.207031 178.75 369.179688 179.4375 368.148438 180.121094 C 366.4375 181.152344 364.722656 182.179688 362.664062 183.210938 C 358.894531 184.925781 355.46875 186.640625 351.695312 188.355469 L 340.726562 193.503906 C 336.957031 195.21875 333.1875 197.621094 329.414062 199.679688 C 325.644531 201.738281 322.214844 203.453125 318.445312 205.511719 C 314.675781 207.570312 310.90625 209.628906 307.476562 211.6875 L 304.046875 213.746094 L 304.390625 214.433594 C 305.078125 216.148438 305.761719 218.207031 306.789062 219.921875 C 308.160156 223.699219 309.875 227.816406 311.246094 231.933594 C 312.617188 236.050781 314.332031 239.824219 315.359375 244.285156 C 316.390625 248.746094 318.101562 252.519531 319.472656 256.980469 C 322.214844 264.871094 325.644531 272.761719 328.386719 280.996094 C 329.070312 283.054688 329.757812 285.457031 330.441406 287.515625 C 330.785156 288.546875 330.785156 289.574219 331.128906 290.605469 C 331.128906 291.289062 331.128906 291.976562 331.128906 292.320312 C 331.128906 293.351562 330.785156 294.378906 330.441406 295.410156 C 329.757812 296.78125 328.730469 297.808594 327.359375 298.152344 C 326.671875 298.496094 325.644531 298.496094 324.957031 298.496094 C 323.246094 298.839844 321.53125 298.839844 319.472656 299.183594 C 310.902344 300.210938 302.335938 300.554688 293.765625 300.898438 C 289.308594 301.242188 285.195312 301.585938 280.738281 301.925781 L 268.054688 302.957031 C 261.886719 303.644531 255.714844 303.984375 249.886719 304.328125 C 246.800781 304.328125 243.71875 304.671875 240.632812 305.015625 C 237.546875 305.359375 234.804688 305.703125 231.71875 306.046875 L 231.378906 306.046875 C 231.035156 306.730469 230.347656 307.417969 230.007812 308.445312 L 227.605469 312.90625 C 225.890625 315.652344 224.179688 318.738281 222.464844 321.484375 C 220.75 324.230469 218.695312 327.316406 216.980469 330.0625 C 214.921875 332.808594 213.210938 335.894531 211.839844 338.984375 C 209.78125 342.757812 207.722656 346.53125 205.667969 350.308594 C 203.609375 354.082031 201.554688 357.167969 199.15625 360.601562 C 196.753906 364.03125 194.355469 367.460938 191.613281 370.550781 C 190.929688 371.921875 189.558594 372.609375 188.1875 373.296875 C 187.84375 373.296875 187.5 373.296875 186.8125 373.296875 C 186.128906 373.296875 184.757812 372.953125 183.730469 372.265625 Z M 183.730469 372.265625 " fill-opacity="1" fill-rule="nonzero"/></g></svg>