<svg xmlns="http://www.w3.org/2000/svg" xmlns:xlink="http://www.w3.org/1999/xlink" width="500" zoomAndPan="magnify" viewBox="0 0 375 374.999991" height="500" preserveAspectRatio="xMidYMid meet" version="1.0"><defs><clipPath id="d98ac9acac"><path d="M 20 27 L 351 27 L 351 347 L 20 347 Z M 20 27 " clip-rule="nonzero"/></clipPath><clipPath id="ac840b0178"><path d="M 25.304688 9.953125 L 371.042969 32.902344 L 348.835938 367.417969 L 3.097656 344.464844 Z M 25.304688 9.953125 " clip-rule="nonzero"/></clipPath><clipPath id="ee20eb2e0b"><path d="M 25.304688 9.953125 L 371.042969 32.902344 L 348.835938 367.417969 L 3.097656 344.464844 Z M 25.304688 9.953125 " clip-rule="nonzero"/></clipPath></defs><g clip-path="url(#d98ac9acac)"><g clip-path="url(#ac840b0178)"><g clip-path="url(#ee20eb2e0b)"><path fill="#fa535d" d="M 346.878906 150.894531 C 346.925781 150.152344 346.976562 149.40625 346.652344 148.636719 L 346.679688 148.265625 Z M 23.496094 345.074219 C 23.523438 344.699219 23.546875 344.328125 23.597656 343.585938 C 23.570312 343.957031 23.546875 344.328125 23.496094 345.074219 C 23.570312 343.957031 23.597656 343.585938 23.644531 342.839844 C 23.695312 342.097656 23.746094 341.351562 23.792969 340.609375 L 23.71875 341.722656 L 23.792969 340.609375 C 23.820312 340.234375 23.820312 340.234375 23.84375 339.863281 L 23.867188 339.492188 C 23.867188 339.492188 23.894531 339.121094 23.894531 339.121094 L 23.917969 338.746094 C 23.941406 338.375 23.96875 338.003906 23.96875 338.003906 L 23.941406 338.375 C 23.96875 338.003906 23.992188 337.632812 24.015625 337.257812 C 23.863281 317.066406 22.964844 296.824219 22.414062 276.980469 C 21.839844 263.113281 21.242188 249.621094 20.640625 236.125 C 20.738281 217.820312 20.832031 199.511719 20.902344 181.578125 C 20.722656 161.757812 21.660156 142.011719 22.222656 122.242188 C 22.789062 102.472656 24.097656 82.75 24.640625 63.351562 C 24.933594 53.28125 24.832031 43.558594 24.753906 33.460938 C 24.878906 31.601562 24.628906 29.714844 24.753906 27.855469 L 40.105469 27.378906 C 55.753906 28.042969 71.003906 29.058594 86.28125 29.695312 C 95.976562 29.96875 105.699219 29.863281 115.046875 29.738281 C 124.398438 29.613281 133.746094 29.484375 143.097656 29.359375 C 155.421875 29.429688 168.09375 29.894531 180.417969 29.964844 C 190.113281 30.238281 199.8125 30.507812 209.507812 30.777344 C 219.203125 31.046875 230.042969 31.019531 240.136719 30.941406 C 251.714844 30.960938 263.273438 31.355469 274.828125 31.75 C 295.363281 31.992188 315.175781 31.8125 334.644531 31.234375 L 346.597656 31.28125 C 346.300781 35.746094 346.378906 40.238281 346.453125 44.726562 C 346.257812 64.523438 346.808594 84.367188 347.011719 103.8125 C 347.21875 123.261719 347.742188 143.476562 348.320312 162.949219 C 348.894531 182.421875 349.371094 203.382812 349.523438 223.574219 L 349.804688 253.121094 C 349.933594 262.472656 350.058594 271.824219 350.210938 280.800781 L 350.234375 280.429688 C 350.234375 280.429688 350.210938 280.800781 350.183594 281.175781 L 350.285156 290.898438 L 350.3125 290.527344 C 350.3125 290.527344 350.285156 290.898438 350.285156 290.898438 C 350.363281 300.996094 350.070312 311.066406 350.144531 321.160156 C 349.972656 329.371094 349.800781 337.582031 349.605469 346.167969 L 318.980469 346 L 288.726562 345.863281 C 278.257812 345.914062 267.445312 345.570312 257.007812 345.25 C 246.566406 344.933594 235.730469 344.960938 225.289062 344.640625 L 192.082031 343.929688 C 170.433594 343.613281 148.757812 343.671875 127.457031 343.75 C 116.617188 343.78125 105.757812 344.179688 94.917969 344.207031 L 63.101562 345.085938 C 50.03125 344.964844 36.566406 345.191406 23.449219 345.816406 C 23.472656 345.445312 23.472656 345.445312 23.496094 345.074219 Z M 23.496094 345.074219 " fill-opacity="1" fill-rule="nonzero"/></g></g></g></svg>